<?xml version="1.0" encoding="utf-8"?>
<!-- Generator: Adobe Illustrator 16.0.0, SVG Export Plug-In . SVG Version: 6.00 Build 0)  -->
<!DOCTYPE svg PUBLIC "-//W3C//DTD SVG 1.1//EN" "http://www.w3.org/Graphics/SVG/1.1/DTD/svg11.dtd">
<svg version="1.1" id="图层_1" xmlns="http://www.w3.org/2000/svg" xmlns:xlink="http://www.w3.org/1999/xlink" x="0px" y="0px"
	 width="1024px" height="588px" viewBox="0 0 1024 588" enable-background="new 0 0 1024 588" xml:space="preserve">
<g>
	<rect x="-3.153" y="506.845" fill="#071538" width="1037.309" height="103.753"/>
	<rect x="-3.153" y="115.738" fill="#28367E" width="1037.309" height="392.957"/>
	<rect x="-3.153" y="-3.136" fill="#071538" width="1037.309" height="140.433"/>
	<polygon fill="#060609" points="551.428,571.016 526.709,568.929 514.998,611.798 	"/>
	<polygon fill="#2D6AB2" points="19.47,148.566 -3.153,10.899 -3.153,46.94 6.25,251.118 	"/>
	<polygon fill="#171A4B" points="1019.838,282.901 1015.938,123.989 1005.527,194.203 	"/>
	<polygon fill="#1A2150" points="51.139,20.513 -3.153,-2.172 -3.153,1.596 34.876,79.646 	"/>
	<polygon fill="#121B45" points="140.923,16.082 -3.153,-2.832 -3.153,-2.172 51.14,20.513 	"/>
	<polygon fill="#0D173E" points="1034.156,-1.055 1034.156,-2.921 967.143,7.95 983.408,80.381 	"/>
	<polygon fill="#1A2251" points="952.832,47.128 925.506,17.557 907.941,79.646 	"/>
	<polygon fill="#174A9F" points="6.25,251.118 -3.153,46.94 -3.153,190.835 -1.557,325.026 	"/>
	<polygon fill="#171849" points="1034.156,350.313 1015.936,123.989 1019.838,282.901 1034.156,359.481 	"/>
	<polygon fill="#1E2156" points="1034.156,5.31 1015.936,123.989 1034.156,350.313 	"/>
	<polygon fill="#1B2755" points="1034.156,5.31 1034.156,-1.055 983.408,80.381 1015.936,123.989 	"/>
	<polygon fill="#164A9E" points="891.027,221.552 910.543,191.254 887.773,157.254 	"/>
	<polygon fill="#0D1020" points="1034.156,367.144 1034.156,366.811 898.834,407.808 903.387,440.325 	"/>
	<polygon fill="#171E4B" points="983.408,80.381 967.143,7.95 952.83,47.128 	"/>
	<polygon fill="#030305" points="918.35,595.16 883.869,520.281 865.656,542.794 	"/>
	<polygon fill="#06060A" points="1034.156,368.452 948.275,457.641 1034.156,609.506 	"/>
	<polygon fill="#2650A2" points="1005.527,194.203 1015.936,123.989 942.42,143.21 	"/>
	<polygon fill="#194797" points="1015.936,123.989 983.408,80.381 942.42,143.21 	"/>
	<polygon fill="#0E1024" points="1034.156,366.811 1034.156,366.022 916.398,330.2 898.834,407.808 	"/>
	<polygon fill="#26306E" points="1005.527,194.203 936.564,203.077 930.711,261.463 	"/>
	<polygon fill="#1B4597" points="1005.527,194.203 942.42,143.21 936.564,203.077 	"/>
	<polygon fill="#060609" points="580.703,580.659 551.428,577.061 515,609.296 	"/>
	<polygon fill="#174B9F" points="936.564,203.077 926.809,166.86 910.545,191.254 	"/>
	<polygon fill="#1C2053" points="1019.838,282.901 1005.527,194.203 930.711,261.463 	"/>
	<polygon fill="#15499E" points="936.594,203.906 942.854,142.385 926.162,166.688 	"/>
	<polygon fill="#0A0C14" points="797.996,587.408 753.105,561.539 714.723,565.973 	"/>
	<polygon fill="#071538" points="952.832,47.128 967.143,7.95 925.506,17.557 	"/>
	<polygon fill="#0D101D" points="883.869,597.753 854.594,520.887 829.873,544.538 	"/>
	<polygon fill="#060609" points="918.35,595.16 911.193,496.79 883.869,520.281 	"/>
	<polygon fill="#010101" points="1034.156,610.599 911.193,496.79 918.35,595.16 1034.156,611.613 	"/>
	<polygon fill="#0D133B" points="1019.838,282.901 930.711,261.463 916.398,330.2 	"/>
	<polygon fill="#0F112B" points="1034.156,359.483 1019.838,282.901 916.398,330.2 1034.156,366.024 	"/>
	<polygon fill="#050509" points="1034.156,609.506 948.275,457.64 911.193,496.79 1034.156,610.599 	"/>
	<polygon fill="#0A0D17" points="865.656,611.799 883.869,585.578 829.873,544.539 	"/>
	<polygon fill="#4297D3" points="570.871,148.72 627.387,86.217 544.271,84.077 	"/>
	<polygon fill="#223267" points="983.408,80.381 952.83,47.128 907.941,79.646 	"/>
	<polygon fill="#20438E" points="942.42,143.21 983.406,80.381 907.941,79.646 	"/>
	<polygon fill="#296BB4" points="926.809,166.86 891.025,142.47 887.773,157.254 	"/>
	<polygon fill="#0D0E1A" points="907.291,469.891 948.275,503.149 903.387,440.326 	"/>
	<polygon fill="#0E0F1C" points="1034.156,368.452 1034.156,367.144 903.387,440.326 948.275,503.149 	"/>
	<polygon fill="#1752A3" points="910.543,191.254 926.809,166.86 887.773,157.254 	"/>
	<polygon fill="#1E5DAA" points="942.42,143.21 907.941,79.646 891.027,142.47 	"/>
	<polygon fill="#224189" points="936.564,203.077 910.545,191.254 891.027,221.552 	"/>
	<polygon fill="#25326E" points="930.873,261.925 936.783,202.614 890.811,221.384 	"/>
	<polygon fill="#26377A" points="930.711,261.463 891.027,221.552 876.064,242.984 	"/>
	<polygon fill="#0D1023" points="885.822,487.629 903.387,440.325 847.438,424.804 	"/>
	<polygon fill="#2074BA" points="926.809,166.86 942.422,143.21 891.025,142.47 	"/>
	<polygon fill="#222A62" points="930.711,261.463 876.064,242.984 868.256,301.377 	"/>
	<polygon fill="#0B0C16" points="911.193,562.276 948.275,503.149 885.822,487.628 	"/>
	<polygon fill="#0D1025" points="903.387,440.325 898.834,407.807 847.438,424.802 	"/>
	<polygon fill="#0D0E1A" points="907.291,469.891 903.387,440.326 885.822,487.628 	"/>
	<polygon fill="#0D0E19" points="948.275,503.149 907.291,469.891 885.822,487.628 	"/>
	<polygon fill="#1E4494" points="876.062,242.984 891.027,221.552 816.211,197.9 	"/>
	<polygon fill="#3678BC" points="887.773,157.254 891.025,142.472 840.932,120.292 	"/>
	<polygon fill="#151546" points="916.398,330.2 930.711,261.463 868.256,301.377 	"/>
	<polygon fill="#0D112C" points="898.834,407.807 916.398,330.2 868.256,301.377 	"/>
	<polygon fill="#0B0C16" points="883.869,520.281 911.193,496.79 854.594,469.385 	"/>
	<polygon fill="#26306E" points="803.199,367.896 821.416,313.199 783.031,303.593 	"/>
	<polygon fill="#0D0E1A" points="911.193,562.276 885.822,487.628 854.596,520.889 	"/>
	<polygon fill="#0E1129" points="854.596,520.887 885.822,487.629 847.438,424.804 	"/>
	<polygon fill="#3BAFE4" points="816.211,197.9 812.957,138.772 785.635,174.249 	"/>
	<polygon fill="#3384C6" points="816.211,197.9 833.125,144.684 812.957,138.772 	"/>
	<polygon fill="#1D2757" points="907.941,79.646 925.504,17.557 851.342,34.562 	"/>
	<polygon fill="#263677" points="868.256,301.377 876.062,242.984 850.693,275.508 	"/>
	<polygon fill="#114C93" points="840.932,120.292 851.342,34.562 809.705,14.605 	"/>
	<polygon fill="#1A4790" points="907.941,79.646 851.342,34.562 840.932,120.292 	"/>
	<polygon fill="#1D53A4" points="891.027,142.47 907.941,79.646 840.93,120.292 	"/>
	<polygon fill="#28367E" points="822.719,391.547 868.256,301.377 821.418,313.199 	"/>
	<polygon fill="#263C89" points="868.256,301.377 850.693,275.508 821.416,313.199 	"/>
	<polygon fill="#2E5CA9" points="887.773,157.254 840.932,120.292 833.127,144.684 	"/>
	<polygon fill="#131544" points="847.438,424.802 898.834,407.807 822.719,391.547 	"/>
	<polygon fill="#1C2A59" points="851.342,34.562 925.506,17.557 809.705,14.605 	"/>
	<polygon fill="#2880C2" points="762.863,125.47 812.957,138.772 762.213,55.254 	"/>
	<polygon fill="#1B1D51" points="803.199,367.896 783.031,303.593 767.42,323.548 	"/>
	<polygon fill="#19194D" points="898.834,407.807 868.256,301.377 822.717,391.547 	"/>
	<polygon fill="#16479C" points="850.691,275.508 876.062,242.984 816.211,197.9 	"/>
	<polygon fill="#18479C" points="891.428,222.243 888.141,156.559 815.809,198.083 	"/>
	<polygon fill="#2B59A7" points="887.773,157.254 833.127,144.684 816.211,197.9 	"/>
	<polygon fill="#061437" points="925.506,17.557 967.143,7.95 809.703,14.605 	"/>
	<polygon fill="#3373B8" points="833.127,144.684 840.932,120.292 812.957,138.772 	"/>
	<polygon fill="#243976" points="34.876,79.646 -3.153,1.596 -3.153,10.899 19.47,148.566 	"/>
	<polygon fill="#0D1025" points="829.873,544.538 854.596,520.887 809.055,517.934 	"/>
	<polygon fill="#242A66" points="822.719,391.547 821.418,313.199 803.199,367.896 	"/>
	<polygon fill="#22356A" points="679.592,35.296 809.705,14.605 629.498,0.562 	"/>
	<polygon fill="#0D1333" points="854.596,520.887 847.438,424.804 809.055,517.935 	"/>
	<polygon fill="#0E0F1D" points="829.873,544.538 809.055,517.934 797.996,587.408 	"/>
	<polygon fill="#0C0F19" points="865.656,542.794 829.873,485.046 797.996,513.433 	"/>
	<polygon fill="#0F112B" points="687.396,485.411 675.688,418.892 657.469,498.716 	"/>
	<polygon fill="#030305" points="918.35,595.16 865.656,542.794 797.996,513.432 	"/>
	<polygon fill="#253D8E" points="821.416,313.199 850.693,275.508 783.031,303.593 	"/>
	<polygon fill="#1D4FA1" points="850.691,275.508 816.211,197.9 783.031,303.593 	"/>
	<polygon fill="#0D143D" points="803.199,367.896 767.42,323.548 752.455,364.201 	"/>
	<polygon fill="#101540" points="847.438,424.802 822.719,391.547 782.381,485.411 	"/>
	<polygon fill="#0E112D" points="809.055,517.934 847.438,424.802 782.381,485.411 	"/>
	<polygon fill="#0C0F19" points="809.055,517.934 782.381,485.411 753.105,561.539 	"/>
	<polygon fill="#4FB0E3" points="693.902,208.247 742.938,145.694 686.756,149.16 	"/>
	<polygon fill="#1B62A9" points="762.863,125.47 762.213,55.254 728.383,44.907 	"/>
	<polygon fill="#155DA8" points="840.932,120.292 809.705,14.605 762.213,55.254 	"/>
	<polygon fill="#419DD7" points="785.635,174.249 812.957,138.772 762.863,125.47 	"/>
	<polygon fill="#2D9FD5" points="812.957,138.772 840.932,120.292 762.213,55.254 	"/>
	<polygon fill="#0C0F19" points="797.996,587.408 809.053,517.935 753.105,561.539 	"/>
	<polygon fill="#0C122B" points="782.381,485.411 822.717,391.548 757.66,448.457 	"/>
	<polygon fill="#101540" points="822.719,391.547 803.199,367.896 757.658,448.457 	"/>
	<polygon fill="#0D101E" points="714.723,565.973 687.396,485.411 677.641,575.58 	"/>
	<polygon fill="#223165" points="762.213,55.254 809.705,14.605 728.383,44.907 	"/>
	<polygon fill="#5CBDEB" points="785.635,174.249 762.863,125.47 742.938,145.694 	"/>
	<polygon fill="#235AA8" points="816.211,197.9 785.635,174.249 736.842,293.982 	"/>
	<polygon fill="#263C85" points="783.031,303.593 816.211,197.9 736.84,293.982 	"/>
	<polygon fill="#1B1E51" points="752.455,364.201 767.42,323.548 736.842,293.982 	"/>
	<polygon fill="#0E112D" points="803.199,367.896 752.455,364.201 736.189,421.109 	"/>
	<polygon fill="#1D2256" points="767.42,323.548 783.031,303.593 736.842,293.982 	"/>
	<polygon fill="#0D112A" points="757.658,448.457 803.199,367.896 736.191,421.109 	"/>
	<polygon fill="#4EADE1" points="686.756,149.16 742.938,145.694 680.893,85.552 	"/>
	<polygon fill="#1E60AC" points="680.893,85.552 728.383,44.907 679.592,35.296 	"/>
	<polygon fill="#20429A" points="736.842,293.982 701.711,259.982 693.254,330.941 	"/>
	<polygon fill="#233870" points="728.383,44.907 809.705,14.605 679.592,35.296 	"/>
	<polygon fill="#3376BB" points="701.711,259.982 785.635,174.249 693.902,208.247 	"/>
	<polygon fill="#1A55A5" points="736.842,293.982 785.635,174.249 701.711,259.982 	"/>
	<polygon fill="#4CA2D9" points="785.635,174.249 742.938,145.694 693.902,208.247 	"/>
	<polygon fill="#0E0F1C" points="782.381,485.411 757.66,448.457 687.398,485.411 	"/>
	<polygon fill="#1F2258" points="752.455,364.201 736.842,293.982 693.252,330.941 	"/>
	<polygon fill="#0D143D" points="736.191,421.109 752.455,364.201 693.254,330.941 	"/>
	<polygon fill="#0C0E19" points="753.105,561.539 782.381,485.411 687.398,485.411 	"/>
	<polygon fill="#0E0F1C" points="714.723,565.973 753.107,561.539 687.396,485.411 	"/>
	<polygon fill="#0E1124" points="757.658,448.457 736.191,421.109 687.396,485.411 	"/>
	<polygon fill="#4094D0" points="601.523,265.896 653.57,262.206 592.414,223.77 	"/>
	<polygon fill="#0B0D17" points="797.996,587.408 714.723,565.973 677.643,575.58 	"/>
	<polygon fill="#4AA4DB" points="742.938,145.694 762.865,125.47 680.893,85.552 	"/>
	<polygon fill="#226EB5" points="762.863,125.47 728.383,44.907 680.893,85.552 	"/>
	<polygon fill="#3F9DD7" points="487.022,302.851 512.396,206.033 472.059,244.464 	"/>
	<polygon fill="#1A5AA8" points="627.389,86.22 679.592,35.296 621.688,22.731 	"/>
	<polygon fill="#171648" points="736.191,421.109 693.254,330.941 675.688,418.892 	"/>
	<polygon fill="#0E1231" points="687.396,485.411 736.191,421.109 675.688,418.892 	"/>
	<polygon fill="#0D1025" points="677.641,575.58 687.396,485.411 657.471,498.716 	"/>
	<polygon fill="#23366E" points="679.592,35.296 629.498,0.562 621.688,22.734 	"/>
	<polygon fill="#213368" points="621.688,22.734 629.498,0.562 575.498,44.169 	"/>
	<polygon fill="#3A71B7" points="701.711,259.982 693.902,208.247 653.57,262.206 	"/>
	<polygon fill="#3354A4" points="693.254,330.941 701.711,259.982 653.57,262.206 	"/>
	<polygon fill="#4CC0EF" points="653.57,262.206 633.398,172.034 592.414,223.77 	"/>
	<polygon fill="#0F112B" points="657.471,498.717 675.688,418.892 637.305,418.153 	"/>
	<polygon fill="#0C0E19" points="677.641,575.58 589.166,563.754 580.705,594.798 	"/>
	<polygon fill="#428BC9" points="653.57,262.206 693.902,208.247 633.398,172.034 	"/>
	<polygon fill="#3399D4" points="693.902,208.247 686.756,149.16 633.398,172.034 	"/>
	<polygon fill="#2C6FB6" points="680.893,85.552 679.592,35.296 627.387,86.217 	"/>
	<polygon fill="#151546" points="45.936,336.111 -1.557,325.023 -3.153,341.951 -3.153,365.059 	"/>
	<polygon fill="#3C99D4" points="686.756,149.16 680.893,85.552 627.387,86.22 	"/>
	<polygon fill="#63C1ED" points="633.398,172.034 686.756,149.16 627.387,86.22 	"/>
	<polygon fill="#3081C3" points="653.57,262.206 601.523,265.896 600.223,268.116 	"/>
	<polygon fill="#0C1234" points="637.305,418.152 675.688,418.893 617.135,337.591 	"/>
	<polygon fill="#1B1B4F" points="675.688,418.892 693.254,330.938 617.137,337.59 	"/>
	<polygon fill="#293680" points="693.254,330.941 653.57,262.206 617.135,337.591 	"/>
	<polygon fill="#2C6AB3" points="627.389,86.22 575.498,44.169 544.271,84.077 	"/>
	<polygon fill="#253E86" points="575.498,44.169 514.998,-3.134 544.271,84.077 	"/>
	<polygon fill="#2A55A5" points="617.135,337.591 653.57,262.206 600.223,268.116 	"/>
	<polygon fill="#0D0F20" points="677.641,575.58 657.471,498.716 593.064,546.016 	"/>
	<polygon fill="#366BB3" points="600.223,268.116 601.523,265.896 592.414,223.77 	"/>
	<polygon fill="#0C0E19" points="677.641,575.58 593.064,546.016 589.166,563.754 	"/>
	<polygon fill="#0D0F20" points="558.586,510.541 498.731,451.413 495.482,486.15 	"/>
	<polygon fill="#0C0D18" points="526.709,568.93 481.818,541.583 460.348,571.146 	"/>
	<polygon fill="#51B0E3" points="584.609,191.254 633.398,172.034 570.871,148.72 	"/>
	<polygon fill="#0D0F20" points="657.471,498.717 637.305,418.153 590.461,506.845 	"/>
	<polygon fill="#0E0F1C" points="593.066,546.016 657.469,498.717 590.461,506.845 	"/>
	<polygon fill="#1A5EAA" points="627.389,86.22 621.688,22.731 575.498,44.169 	"/>
	<polygon fill="#59B1E3" points="592.414,223.77 633.398,172.034 584.609,191.254 	"/>
	<polygon fill="#1C2454" points="629.498,0.562 515,-3.134 575.498,44.169 	"/>
	<polygon fill="#0D1023" points="590.461,506.845 637.305,418.153 567.041,435.151 	"/>
	<polygon fill="#76CBF2" points="633.398,172.034 627.387,86.22 570.871,148.72 	"/>
	<polygon fill="#0C0E19" points="580.703,594.798 589.164,563.754 551.428,577.062 	"/>
	<polygon fill="#0D0E1B" points="526.709,568.93 558.586,510.541 495.482,486.151 	"/>
	<polygon fill="#0D112C" points="637.305,418.152 617.135,337.591 567.043,435.151 	"/>
	<polygon fill="#0C0E19" points="551.428,577.061 558.586,510.541 526.709,568.93 	"/>
	<polygon fill="#0D1021" points="590.461,506.845 564.441,437.371 558.586,510.541 	"/>
	<polygon fill="#0D1023" points="590.461,506.845 567.041,435.151 564.441,437.371 	"/>
	<polygon fill="#0D0E1A" points="593.066,546.016 558.586,510.541 551.428,577.06 	"/>
	<polygon fill="#0D0E1A" points="589.164,563.754 593.066,546.016 551.428,577.06 	"/>
	<polygon fill="#0D101E" points="593.066,546.016 590.461,506.845 558.586,510.541 	"/>
	<polygon fill="#50A3DA" points="584.609,191.254 570.871,148.72 535.164,183.115 	"/>
	<polygon fill="#4B9BD4" points="535.164,183.115 570.871,148.72 503.285,129.903 	"/>
	<polygon fill="#4F9CD5" points="592.414,223.77 584.609,191.254 535.164,183.115 	"/>
	<polygon fill="#080A11" points="677.641,575.579 580.705,579.919 514.998,611.798 	"/>
	<polygon fill="#0A1339" points="567.043,435.151 617.135,337.595 541.67,325.764 	"/>
	<polygon fill="#58B6E1" points="503.285,129.903 544.271,84.077 479.215,68.558 	"/>
	<polygon fill="#252C68" points="617.135,337.591 600.223,268.116 541.67,325.764 	"/>
	<polygon fill="#0B0C15" points="797.996,513.432 677.643,505.6 514.998,611.799 	"/>
	<polygon fill="#010101" points="918.35,595.16 797.996,513.432 514.998,611.799 	"/>
	<polygon fill="#0F143F" points="45.936,336.111 -3.153,365.059 -3.153,368.164 101.885,447.719 	"/>
	<polygon fill="#1D2256" points="45.936,336.111 6.25,251.118 -1.557,325.026 	"/>
	<polygon fill="#010101" points="514.998,611.799 346.499,564.327 -3.153,611.487 -3.153,611.799 	"/>
	<polygon fill="#010101" points="1034.156,611.799 1034.156,611.614 918.35,595.16 515,611.799 	"/>
	<polygon fill="#4598D3" points="570.871,148.72 544.271,84.077 503.285,129.903 	"/>
	<polygon fill="#3151A2" points="541.67,325.764 600.223,268.116 512.396,206.033 	"/>
	<polygon fill="#3F76BA" points="600.223,268.116 592.414,223.77 512.396,206.033 	"/>
	<polygon fill="#3E7DBF" points="592.414,223.77 535.164,183.115 512.396,206.033 	"/>
	<polygon fill="#283883" points="492.876,375.284 541.67,325.764 487.022,302.851 	"/>
	<polygon fill="#52C1EF" points="535.85,184.041 503.42,129.908 498.789,158.484 	"/>
	<polygon fill="#0D0F20" points="558.586,510.541 564.441,437.37 498.731,451.413 	"/>
	<polygon fill="#57BDEB" points="512.261,206.318 535.164,183.268 498.516,157.99 	"/>
	<polygon fill="#65C2EE" points="503.285,129.903 479.215,68.558 455.794,130.64 	"/>
	<polygon fill="#0D0F22" points="495.482,486.15 498.731,451.413 479.866,434.413 	"/>
	<polygon fill="#0F122F" points="498.731,451.413 564.441,437.37 492.876,375.284 	"/>
	<polygon fill="#3777BB" points="541.67,325.764 512.396,206.033 487.022,302.851 	"/>
	<polygon fill="#0D1129" points="564.441,437.37 567.043,435.151 492.876,375.283 	"/>
	<polygon fill="#151546" points="567.043,435.151 541.67,325.764 492.876,375.283 	"/>
	<polygon fill="#0E112D" points="498.731,451.413 492.876,375.284 479.866,434.413 	"/>
	<polygon fill="#060609" points="514.998,611.799 526.709,501.196 460.348,502.664 	"/>
	<polygon fill="#0C0E19" points="526.709,568.93 495.482,486.151 481.818,541.583 	"/>
	<polygon fill="#1C66A4" points="479.216,68.558 451.24,2.777 408.302,70.037 	"/>
	<polygon fill="#1F3F7A" points="514.998,-3.134 451.24,2.777 479.216,68.558 	"/>
	<polygon fill="#265AA8" points="402.18,157.023 397.523,153.826 396.593,222.292 	"/>
	<polygon fill="#43A1D9" points="472.059,244.464 460.348,198.637 425.87,274.768 	"/>
	<polygon fill="#2878B2" points="514.998,-3.134 479.216,68.558 544.271,84.077 	"/>
	<polygon fill="#6FCFF5" points="460.348,198.637 498.735,157.99 455.794,130.64 	"/>
	<polygon fill="#7BD1F1" points="499.175,158.484 503.849,129.654 455.11,130.412 	"/>
	<polygon fill="#66C4EF" points="472.121,244.464 512.66,205.838 460.348,198.405 	"/>
	<polygon fill="#67CDF5" points="512.396,206.033 498.731,157.995 460.348,198.637 	"/>
	<polygon fill="#3277BC" points="414.811,138.034 455.794,130.64 408.301,70.037 	"/>
	<polygon fill="#2E6CB4" points="392.055,147.204 414.811,138.037 391.412,145.745 	"/>
	<polygon fill="#4AB2E5" points="460.563,198.637 455.925,129.945 434.063,176.986 	"/>
	<polygon fill="#0E122E" points="479.866,434.413 492.876,375.284 453.841,413.717 	"/>
	<polygon fill="#010101" points="346.499,564.327 125.305,567.265 -3.153,611.013 -3.153,611.487 	"/>
	<polygon fill="#020305" points="346.499,564.327 407.652,499.237 338.692,513.432 	"/>
	<polygon fill="#40A3D6" points="455.794,130.64 479.215,68.558 408.302,70.037 	"/>
	<polygon fill="#223267" points="408.302,70.037 451.24,2.777 399.847,8.688 	"/>
	<polygon fill="#0B0D17" points="460.348,571.146 481.818,541.582 407.652,565.972 	"/>
	<polygon fill="#2C61AD" points="414.811,138.034 408.301,70.037 391.412,145.745 	"/>
	<polygon fill="#2F6EB5" points="487.022,302.851 472.059,244.464 425.87,274.768 	"/>
	<polygon fill="#2D62AD" points="434.326,177.205 414.811,138.034 402.18,157.023 	"/>
	<polygon fill="#263C8B" points="111.648,306.551 118.801,218.598 6.25,251.118 	"/>
	<polygon fill="#44A5DC" points="434.326,177.205 455.794,130.64 414.811,138.034 	"/>
	<polygon fill="#1E4486" points="333.488,67.079 399.849,8.69 328.935,22.734 	"/>
	<polygon fill="#0E1026" points="366.017,450.67 400.495,360.502 349.752,418.153 	"/>
	<polygon fill="#0D0F20" points="384.882,492.801 453.841,413.718 366.017,450.67 	"/>
	<polygon fill="#0D1023" points="453.841,413.717 400.495,360.502 366.017,450.67 	"/>
	<polygon fill="#0E1231" points="222.892,431.455 172.797,382.675 142.87,438.849 	"/>
	<polygon fill="#3973B8" points="306.818,282.901 288.598,246.684 215.737,283.636 	"/>
	<polygon fill="#0D1231" points="453.841,413.717 492.876,375.284 400.495,360.502 	"/>
	<polygon fill="#20235A" points="492.876,375.284 487.022,302.851 400.495,360.502 	"/>
	<polygon fill="#28367E" points="487.022,302.851 425.87,274.768 400.495,360.502 	"/>
	<polygon fill="#3578BC" points="402.18,157.023 414.811,138.034 397.523,153.826 	"/>
	<polygon fill="#3069B2" points="397.523,153.826 414.811,138.034 392.055,147.204 	"/>
	<polygon fill="#316FB6" points="460.348,198.637 434.326,177.205 396.593,222.292 	"/>
	<polygon fill="#376BB3" points="425.87,274.768 460.348,198.637 396.593,222.292 	"/>
	<polygon fill="#2B5DAA" points="434.326,177.205 402.18,157.023 396.593,222.292 	"/>
	<polygon fill="#2B56A5" points="312.017,336.852 327.634,329.459 306.818,282.901 	"/>
	<polygon fill="#0E0F1D" points="495.482,486.15 479.866,434.413 384.882,492.801 	"/>
	<polygon fill="#0E0F1F" points="479.866,434.413 453.841,413.717 384.882,492.801 	"/>
	<polygon fill="#0C0F19" points="407.652,565.973 481.818,541.583 384.881,492.801 	"/>
	<polygon fill="#0D0E1A" points="481.818,541.582 495.482,486.15 384.882,492.801 	"/>
	<polygon fill="#273A8B" points="425.87,274.768 362.115,260.726 355.605,313.199 	"/>
	<polygon fill="#2457A6" points="397.523,153.826 392.055,147.204 338.041,202.337 	"/>
	<polygon fill="#060609" points="460.348,502.664 407.652,499.237 346.499,564.327 	"/>
	<polygon fill="#2B5BA8" points="425.87,274.768 396.593,222.292 362.115,260.726 	"/>
	<polygon fill="#010101" points="514.998,611.799 460.348,502.664 346.499,564.327 	"/>
	<polygon fill="#20438E" points="196.867,121.033 140.922,16.082 127.254,80.381 	"/>
	<polygon fill="#242A65" points="400.495,360.502 425.87,274.768 355.605,313.199 	"/>
	<polygon fill="#2D88C4" points="262.578,122.512 333.489,67.079 248.917,31.603 	"/>
	<polygon fill="#233F85" points="408.302,70.037 399.847,8.688 333.488,67.079 	"/>
	<polygon fill="#2651A3" points="396.593,222.292 397.523,153.826 338.041,202.337 	"/>
	<polygon fill="#2559A8" points="391.412,145.745 408.302,70.037 339.341,123.252 	"/>
	<polygon fill="#050709" points="346.499,564.327 338.692,513.432 267.126,529.582 	"/>
	<polygon fill="#0D1025" points="301.613,513.498 366.017,450.671 296.404,452.891 	"/>
	<polygon fill="#265CA9" points="392.055,147.204 391.412,145.745 338.041,202.337 	"/>
	<polygon fill="#2E66B0" points="391.412,145.745 339.341,123.252 338.041,202.337 	"/>
	<polygon fill="#2857A6" points="362.115,260.726 396.593,222.292 338.041,202.337 	"/>
	<polygon fill="#0B0D16" points="407.652,565.973 384.881,492.801 334.139,551.188 	"/>
	<polygon fill="#070A0F" points="338.692,513.432 407.652,499.238 334.139,489.448 	"/>
	<polygon fill="#0E1129" points="366.017,450.67 349.752,418.153 296.404,452.891 	"/>
	<polygon fill="#2561AD" points="339.341,123.252 408.302,70.037 333.488,67.079 	"/>
	<polygon fill="#21275F" points="400.495,360.502 355.605,313.199 327.634,329.459 	"/>
	<polygon fill="#0C143C" points="349.752,418.152 400.495,360.502 327.634,329.459 	"/>
	<polygon fill="#1860A3" points="333.488,67.079 328.935,22.734 248.917,31.603 	"/>
	<polygon fill="#2B89C9" points="339.341,123.252 333.488,67.079 312.671,143.21 	"/>
	<polygon fill="#21255D" points="349.752,418.152 327.634,329.459 312.014,336.852 	"/>
	<polygon fill="#3177BB" points="338.041,202.337 339.341,123.252 312.671,143.21 	"/>
	<polygon fill="#264A9E" points="327.634,329.459 355.605,313.199 306.818,282.901 	"/>
	<polygon fill="#2D58A7" points="355.605,313.199 362.116,260.726 306.818,282.901 	"/>
	<polygon fill="#0D0E1A" points="334.139,551.188 384.882,492.801 301.613,513.5 	"/>
	<polygon fill="#0E0F1D" points="384.882,492.801 366.017,450.67 301.613,513.498 	"/>
	<polygon fill="#58B4E5" points="265.653,162.324 226.796,142.47 222.89,214.16 	"/>
	<polygon fill="#0D1021" points="181.907,509.801 222.892,431.455 142.872,438.849 	"/>
	<polygon fill="#5BB7E7" points="226.796,142.47 262.578,122.512 196.867,121.033 	"/>
	<polygon fill="#3089C9" points="362.115,260.726 338.041,202.337 288.598,246.684 	"/>
	<polygon fill="#3889C9" points="306.818,282.901 362.112,260.726 288.598,246.684 	"/>
	<polygon fill="#2D99D5" points="288.598,246.684 338.041,202.337 276.238,199.381 	"/>
	<polygon fill="#3589C9" points="338.041,202.337 312.671,143.21 276.238,199.381 	"/>
	<polygon fill="#090B12" points="267.126,611.799 215.086,497.975 200.121,585.188 	"/>
	<polygon fill="#29357F" points="229.398,380.458 274.284,380.458 215.737,283.636 	"/>
	<polygon fill="#1F2259" points="349.752,418.152 312.014,336.852 274.284,380.458 	"/>
	<polygon fill="#121542" points="296.404,452.891 349.753,418.153 274.284,380.459 	"/>
	<polygon fill="#0D1026" points="301.613,513.498 296.404,452.891 267.781,480.979 	"/>
	<polygon fill="#0B0C15" points="334.139,551.188 301.613,513.5 267.126,611.799 	"/>
	<polygon fill="#090B12" points="338.692,513.432 334.139,489.448 267.126,529.582 	"/>
	<polygon fill="#3091CF" points="312.671,143.21 333.488,67.079 262.578,122.512 	"/>
	<polygon fill="#3090CE" points="276.238,199.381 312.671,143.21 265.653,162.324 	"/>
	<polygon fill="#3090CE" points="265.653,162.324 312.671,143.21 262.578,122.512 	"/>
	<polygon fill="#388AC9" points="276.238,199.381 265.653,162.324 222.89,214.164 	"/>
	<polygon fill="#489ECF" points="262.578,122.512 248.917,31.603 196.867,121.033 	"/>
	<polygon fill="#1B1C50" points="274.284,380.458 229.398,380.458 222.892,431.455 	"/>
	<polygon fill="#0E112D" points="267.781,480.978 296.404,452.891 222.892,431.455 	"/>
	<polygon fill="#121541" points="296.404,452.891 274.284,380.459 222.892,431.455 	"/>
	<polygon fill="#1D53A4" points="147.424,130.64 196.867,121.033 127.257,80.381 	"/>
	<polygon fill="#090910" points="200.121,585.188 181.907,509.801 159.784,572.625 	"/>
	<polygon fill="#3A9AD5" points="265.653,162.324 262.578,122.512 226.796,142.47 	"/>
	<polygon fill="#3679BC" points="288.598,246.684 276.238,199.381 222.892,214.16 	"/>
	<polygon fill="#3363AD" points="312.017,336.852 306.818,282.901 215.737,283.636 	"/>
	<polygon fill="#27459B" points="274.284,380.458 312.018,336.852 215.737,283.636 	"/>
	<polygon fill="#0E1024" points="267.781,480.978 222.892,431.455 215.086,497.975 	"/>
	<polygon fill="#1B1D51" points="172.797,382.675 171.498,322.071 148.081,380.458 	"/>
	<polygon fill="#4389C8" points="288.598,246.684 222.892,214.16 215.738,283.636 	"/>
	<polygon fill="#0E101F" points="301.613,513.498 267.781,480.979 215.089,497.974 	"/>
	<polygon fill="#0A0C14" points="267.126,611.799 301.613,513.498 215.086,497.975 	"/>
	<polygon fill="#161546" points="148.078,380.458 111.648,306.551 107.089,376.028 	"/>
	<polygon fill="#1E2157" points="148.078,380.458 171.499,322.071 111.648,306.551 	"/>
	<polygon fill="#2A7CBF" points="226.796,142.47 196.867,121.033 181.907,195.684 	"/>
	<polygon fill="#0E0F1F" points="215.086,497.975 222.893,431.455 181.907,509.801 	"/>
	<polygon fill="#0B0C16" points="200.121,585.188 215.086,497.975 181.907,509.801 	"/>
	<polygon fill="#3194D1" points="222.892,214.16 226.796,142.47 181.907,195.684 	"/>
	<polygon fill="#253D8E" points="171.498,322.071 215.737,283.636 169.546,254.814 	"/>
	<polygon fill="#2D80C3" points="181.907,195.684 196.867,121.033 147.424,130.64 	"/>
	<polygon fill="#2057A6" points="222.892,214.16 181.907,195.684 169.546,254.814 	"/>
	<polygon fill="#0B1337" points="172.797,382.675 148.081,380.458 142.87,438.849 	"/>
	<polygon fill="#121443" points="222.892,431.455 229.398,380.458 172.797,382.675 	"/>
	<polygon fill="#293680" points="229.398,380.458 215.737,283.636 171.498,322.071 	"/>
	<polygon fill="#1E2056" points="172.797,382.675 229.398,380.458 171.498,322.071 	"/>
	<polygon fill="#2457A6" points="215.737,283.636 222.892,214.16 169.546,254.814 	"/>
	<polygon points="200.121,511.962 159.784,503.644 125.307,567.265 	"/>
	<polygon fill="#020305" points="267.126,529.582 200.121,511.962 125.307,567.265 	"/>
	<polygon fill="#010101" points="346.499,564.327 267.126,529.582 125.307,567.265 	"/>
	<polygon fill="#010101" points="125.307,567.265 62.203,538.392 -3.153,609.298 -3.153,611.013 	"/>
	<polygon fill="#0C1234" points="142.87,438.849 148.078,380.458 107.089,376.027 	"/>
	<polygon fill="#164995" points="196.867,121.033 248.917,31.603 140.922,16.082 	"/>
	<polygon fill="#124EA1" points="181.907,195.684 147.424,130.64 118.801,218.598 	"/>
	<polygon fill="#194797" points="118.801,218.598 57.649,175.727 6.25,251.118 	"/>
	<polygon fill="#1B447D" points="328.935,22.734 399.849,8.69 140.923,16.082 	"/>
	<polygon fill="#203C72" points="248.917,31.603 328.935,22.734 140.923,16.082 	"/>
	<polygon fill="#22418B" points="107.744,138.034 127.257,80.381 34.876,79.646 	"/>
	<polygon fill="#263C89" points="169.546,254.814 118.801,218.598 111.648,306.551 	"/>
	<polygon fill="#25346F" points="127.257,80.381 140.923,16.082 118.147,51.559 	"/>
	<polygon fill="#0D0E1B" points="93.427,537.149 -3.153,370.399 -3.153,372.414 77.813,582.973 	"/>
	<polygon fill="#184B9F" points="169.546,254.814 181.907,195.684 118.801,218.598 	"/>
	<polygon fill="#369AD2" points="57.649,175.727 34.877,79.646 19.47,148.566 	"/>
	<polygon fill="#010101" points="125.307,567.265 77.813,510.495 62.202,538.392 	"/>
	<polygon fill="#0C0C16" points="77.813,570.305 -3.153,372.414 -3.153,375.063 62.203,609.899 	"/>
	<polygon fill="#27367A" points="171.498,322.071 169.546,254.814 111.648,306.551 	"/>
	<polygon fill="#1D2055" points="107.089,376.027 111.648,306.551 45.936,336.111 	"/>
	<polygon fill="#184796" points="147.424,130.64 127.257,80.381 107.744,138.034 	"/>
	<polygon fill="#114B9B" points="118.801,218.598 147.424,130.64 107.744,138.034 	"/>
	<polygon fill="#010101" points="159.784,572.622 86.923,565.235 77.813,582.973 	"/>
	<polygon fill="#0D0F24" points="101.884,447.718 -3.153,368.165 -3.153,370.398 93.427,537.149 	"/>
	<polygon fill="#0E1027" points="142.87,438.849 107.089,376.027 101.884,447.719 	"/>
	<polygon fill="#030305" points="159.784,572.622 87.572,563.018 86.923,565.235 	"/>
	<polygon fill="#0D101E" points="181.907,509.801 142.872,438.849 101.884,447.718 	"/>
	<polygon fill="#0A0C15" points="181.907,509.801 101.884,447.718 93.427,537.149 	"/>
	<polygon fill="#07070C" points="159.784,572.622 181.907,509.801 93.427,537.149 	"/>
	<polygon fill="#040407" points="159.784,503.642 93.427,480.153 87.572,497.281 	"/>
	<polygon fill="#010101" points="125.307,567.265 159.784,503.644 77.813,510.495 	"/>
	<polygon fill="#1D2757" points="118.147,51.559 140.923,16.082 51.139,20.513 	"/>
	<polygon fill="#07070C" points="87.572,563.018 93.427,537.149 77.813,582.974 	"/>
	<polygon fill="#050508" points="86.923,565.235 87.572,563.018 77.814,582.973 	"/>
	<polygon fill="#050508" points="62.202,538.392 -3.153,372.943 -3.153,609.297 	"/>
	<polygon fill="#253D85" points="118.801,218.598 107.744,138.034 57.649,175.727 	"/>
	<polygon fill="#0B1336" points="101.884,447.718 107.089,376.026 45.936,336.111 	"/>
	<polygon fill="#2475BB" points="57.649,175.727 19.47,148.566 6.25,251.118 	"/>
	<polygon fill="#224289" points="127.257,80.381 118.147,51.559 34.876,79.646 	"/>
	<polygon fill="#24356F" points="118.147,51.559 51.139,20.513 34.876,79.646 	"/>
	<polygon fill="#252F6C" points="45.936,336.111 111.648,306.551 6.25,251.118 	"/>
	<polygon fill="#1F71B8" points="57.649,175.727 107.744,138.034 34.877,79.646 	"/>
</g>
</svg>
