<?xml version="1.0" encoding="utf-8"?>
<!-- Generator: Adobe Illustrator 16.0.0, SVG Export Plug-In . SVG Version: 6.00 Build 0)  -->
<!DOCTYPE svg PUBLIC "-//W3C//DTD SVG 1.1//EN" "http://www.w3.org/Graphics/SVG/1.1/DTD/svg11.dtd">
<svg version="1.1" id="Layer_1" xmlns="http://www.w3.org/2000/svg" xmlns:xlink="http://www.w3.org/1999/xlink" x="0px" y="0px"
	 width="603px" height="136.183px" viewBox="0 0 603 136.183" enable-background="new 0 0 603 136.183" xml:space="preserve">
<g>
	<path fill="#EAEAEA" d="M89.941,18.647H10.48c-0.822,0-1.498,0.674-1.498,1.498v58.736c0,0.824,0.676,1.498,1.498,1.498h79.461
		c0.823,0,1.497-0.674,1.497-1.498V20.146C91.438,19.321,90.765,18.647,89.941,18.647z M84.865,73.004
		c0,0.782-0.64,1.423-1.422,1.423H17.032c-0.781,0-1.421-0.641-1.421-1.423V26.077c0-0.783,0.64-1.424,1.421-1.424h66.411
		c0.782,0,1.422,0.641,1.422,1.424V73.004z"/>
	<path fill="#EAEAEA" d="M4.402,82.03L0,83.478l0.011,2.995c0.048,0.673,0.548,0.688,1.497,0.71l97.398-0.046
		c0.863,0,1.515,0.009,1.515-0.664v-2.991l-5.419-1.439L4.402,82.03z M61.721,86.141H38.7c-0.399,0-0.725-0.325-0.725-0.728
		c0-0.4,0.325-0.726,0.725-0.726h23.021c0.4,0,0.727,0.325,0.727,0.726C62.447,85.815,62.121,86.141,61.721,86.141z M78.98,86.004
		c-0.306,0-0.554-0.248-0.554-0.554c0-0.305,0.248-0.553,0.554-0.553c0.304,0,0.554,0.248,0.554,0.553
		C79.534,85.756,79.284,86.004,78.98,86.004z M80.917,86.004c-0.306,0-0.554-0.248-0.554-0.554c0-0.305,0.248-0.553,0.554-0.553
		s0.553,0.248,0.553,0.553C81.47,85.756,81.223,86.004,80.917,86.004z M82.854,86.004c-0.305,0-0.555-0.248-0.555-0.554
		c0-0.305,0.25-0.553,0.555-0.553c0.306,0,0.554,0.248,0.554,0.553C83.408,85.756,83.16,86.004,82.854,86.004z"/>
</g>
<g>
	<path fill="#EAEAEA" d="M518.315,34.578c-6.517,0-11.812,5.954-11.812,13.28c0,7.347,5.296,13.28,11.812,13.28
		c6.535,0,11.812-5.934,11.812-13.28C530.127,40.532,524.851,34.578,518.315,34.578L518.315,34.578z M513.076,65.57
		c-7.252,0-13.127,6.606-13.127,14.76v6.853h18.008l3.465-18.146c0.246-1.23,0.654-2.403,1.195-3.466H513.076z M584.634,34.578
		c-6.535,0-11.812,5.954-11.812,13.28c0,7.347,5.276,13.28,11.812,13.28c6.517,0,11.812-5.934,11.812-13.28
		C596.446,40.532,591.15,34.578,584.634,34.578L584.634,34.578z M589.873,65.57h-8.334c0.541,1.062,0.956,2.223,1.195,3.438
		l3.466,18.174H603V80.33C603,72.177,597.125,65.57,589.873,65.57L589.873,65.57z M565.79,39.585
		c0,8.506-6.139,15.408-13.705,15.408s-13.699-6.902-13.699-15.408c0-8.508,6.133-15.402,13.699-15.402S565.79,31.077,565.79,39.585
		L565.79,39.585z M552.085,65.657c0.843,0,1.905,0,2.534-0.715c0.636-0.707,1.68-2.608,1.68-4.03
		c0.006-1.654-2.572-1.896-4.214-1.896s-4.221,0.241-4.214,1.896c0.006,1.422,1.044,3.323,1.679,4.03
		C550.186,65.657,551.242,65.657,552.085,65.657L552.085,65.657z M520.599,87.183l3.346-17.54c0.761-3.83,3.548-6.736,7.001-7.309
		l12.183-2.009l6.107,15.755l0.711-7.863c0.019-0.243,0.201-0.432,0.415-0.432h3.453c0.214,0,0.396,0.185,0.415,0.432l0.78,7.666
		l6.031-15.558l12.184,2.009c3.459,0.572,6.239,3.479,7,7.309l3.353,17.54H520.599z"/>
</g>
<g>
	<path fill="#EAEAEA" d="M280.699,26.193c0-5.14,4.164-9.304,9.299-9.304c5.139,0,9.304,4.164,9.304,9.304
		c0,5.139-4.165,9.304-9.304,9.304C284.863,35.497,280.699,31.332,280.699,26.193L280.699,26.193z M314.812,59.52
		c-0.768,1.26-2.652,1.406-4.012,0.787l-8.329-3.978c-1.107-0.532-1.925-1.526-2.225-2.718l-1.684-6.62v35.88
		c0,2.162-1.58,4.086-3.731,4.293c-2.467,0.23-4.539-1.699-4.539-4.115c0,2.416-2.072,4.346-4.538,4.115
		c-2.151-0.207-3.731-2.131-3.731-4.293V61.34c0,1.768-1.826,3.186-3.618,3.186c-1.979,0-3.618-1.674-3.618-3.357V45.834
		c0-3.997,3.239-7.237,7.236-7.237h17.155c2.786,0,6.095,1.414,6.626,4.87c0.354,2.283,0.881,8.014,0.881,8.014
		c0.039,0.345,0.25,0.649,0.561,0.807l6.73,3.402C315.039,56.23,315.771,57.953,314.812,59.52L314.812,59.52z M331.49,44.712h-13.02
		c-1.068,0-1.9,1.033-1.541,2.161c0.211,0.679,0.9,1.098,1.609,1.098h0.025c0.943,0,1.801,0.531,2.219,1.368l0.02,0.034
		c0.566,1.133,1.723,1.852,2.994,1.852h2.373c1.27,0,2.426-0.719,2.992-1.852l0.02-0.034c0.418-0.837,1.279-1.368,2.221-1.368h0.023
		c0.709,0,1.398-0.424,1.615-1.098C333.391,45.745,332.562,44.712,331.49,44.712L331.49,44.712z M333.045,40.695
		c0,0.895-0.729,1.624-1.629,1.624h-13.02c-0.896,0-1.629-0.729-1.629-1.624c0-0.872,0.684-1.572,1.535-1.62
		c-1.014-9.161-10.484-11.198-10.484-21.984c0-9.441,7.648-17.091,17.09-17.091C334.346,0,342,7.649,342,17.091
		c0,10.786-9.477,12.823-10.49,21.984C332.367,39.123,333.045,39.823,333.045,40.695L333.045,40.695z M321.158,4.568
		c-0.256-0.627-0.965-0.926-1.59-0.675c-4.16,1.684-7.316,5.287-8.438,9.639c-0.168,0.648,0.227,1.314,0.875,1.486
		c0.104,0.024,0.207,0.04,0.307,0.04c0.545,0,1.043-0.369,1.186-0.916c0.926-3.604,3.539-6.592,6.984-7.984
		C321.109,5.902,321.408,5.193,321.158,4.568L321.158,4.568z"/>
</g>
<g>
	<path fill="#EAEAEA" d="M35.108,116.644c0.031,0.542,0.067,0.995,0.109,1.359c-1.667,1.042-3.042,1.948-4.125,2.719l-0.75-1.062
		c0.364-0.312,0.547-0.786,0.547-1.422v-6.188h-2.219v-1.125h3.469v7.594C33.046,117.967,34.035,117.342,35.108,116.644z
		 M30.265,105.847c1.135,1.167,1.958,2.031,2.469,2.594l-1.094,0.922c-0.656-0.864-1.433-1.761-2.328-2.688L30.265,105.847z
		 M33.671,111.019h4.547v-5.375h1.344v5.375h4.578v1.125h-4.578v8.812h-1.344v-8.812h-4.547V111.019z"/>
	<path fill="#EAEAEA" d="M46.843,109.581h2.594c-0.386-0.479-0.771-0.927-1.156-1.344l0.562-0.406H47.53
		c-0.615,0.776-1.318,1.495-2.109,2.156c-0.229-0.261-0.49-0.526-0.781-0.797c1.281-1,2.292-2.219,3.031-3.656h1.328
		c-0.245,0.479-0.516,0.942-0.812,1.391h4.547v0.906h-3.516c0.375,0.38,0.75,0.776,1.125,1.188l-0.742,0.562h7.203
		c-0.396-0.458-0.836-0.906-1.32-1.344l0.539-0.406h-1.555c-0.412,0.63-0.839,1.192-1.281,1.688
		c-0.271-0.239-0.589-0.484-0.953-0.734c0.885-0.927,1.614-2.011,2.188-3.25h1.344c-0.24,0.489-0.484,0.953-0.734,1.391h4.953v0.906
		h-3.562c0.448,0.37,0.859,0.75,1.234,1.141l-0.758,0.609h1.211v7.031h-1.094v-0.516h-9.078v0.516h-1.094V109.581z M44.796,117.378
		h4.25c0.042-0.297,0.062-0.625,0.062-0.984h1.141c0,0.349-0.019,0.677-0.055,0.984h5.117v-0.969h1.156v0.969h3.703v0.969h-3.703
		v2.625h-1.156v-2.625H50.03c-0.375,1.401-1.609,2.323-3.703,2.766c-0.198-0.323-0.427-0.667-0.688-1.031
		c1.729-0.292,2.786-0.87,3.172-1.734h-4.016V117.378z M57.015,110.456h-9.078v1.047h9.078V110.456z M47.937,113.362h9.078v-1.047
		h-9.078V113.362z M47.937,115.222h9.078v-1.047h-9.078V115.222z"/>
	<path fill="#EAEAEA" d="M60.624,115.394c1.167-1.739,1.997-3.614,2.492-5.625H60.78v-1.062h2.438v-3.078h1.125v3.078h2.188v1.062
		h-2.188v2.594l0.625-0.625c0.802,0.729,1.432,1.323,1.891,1.781l-0.844,0.859c-0.641-0.708-1.198-1.297-1.672-1.766v8.25h-1.125
		v-8.375c-0.558,1.766-1.25,3.192-2.078,4.281C60.973,116.3,60.801,115.842,60.624,115.394z M68.858,107.815v5.172
		c0,3.729-0.933,6.433-2.797,8.109c-0.292-0.354-0.599-0.708-0.922-1.062c1.646-1.448,2.469-3.703,2.469-6.766v-6.641h5.812v11.75
		c0,0.521,0.182,0.781,0.547,0.781h0.359c0.333,0,0.547-0.292,0.641-0.875c0.104-0.802,0.177-1.667,0.219-2.594
		c0.364,0.177,0.76,0.344,1.188,0.5c-0.094,1.031-0.188,1.875-0.281,2.531c-0.167,1.104-0.698,1.656-1.594,1.656h-0.828
		c-1,0-1.5-0.594-1.5-1.781v-10.781H68.858z"/>
</g>
<g>
	<path fill="#EAEAEA" d="M289.039,105.784l-0.203,0.328c1.323,1.219,2.594,2.453,3.812,3.703l-0.859,0.969
		c-1.115-1.239-2.302-2.464-3.562-3.672c-1.021,1.614-2.073,2.964-3.156,4.047h6.422c-0.062,1.448-0.115,2.464-0.156,3.047
		c-0.052,1.552-0.761,2.328-2.125,2.328c-0.552,0-1.229-0.016-2.031-0.047c-0.062-0.458-0.136-0.875-0.219-1.25
		c0.698,0.114,1.364,0.177,2,0.188c0.75,0.011,1.151-0.464,1.203-1.422c0.031-0.5,0.062-1.083,0.094-1.75h-4.141v6.266
		c0,0.583,0.312,0.875,0.938,0.875h2.562c0.823,0,1.286-0.271,1.391-0.812c0.125-0.5,0.219-1.125,0.281-1.875
		c0.406,0.167,0.817,0.317,1.234,0.453c-0.104,0.688-0.234,1.323-0.391,1.906c-0.261,0.969-0.995,1.453-2.203,1.453h-3.109
		c-1.281,0-1.922-0.636-1.922-1.906v-7.266c-0.333,0.312-0.662,0.599-0.984,0.859c-0.312-0.511-0.552-0.886-0.719-1.125
		c1.708-1.302,3.177-3.067,4.406-5.297H289.039z M296.523,105.894h1.25v12.984c0,1.271-0.63,1.911-1.891,1.922
		c-0.438,0-1.255-0.005-2.453-0.016c-0.052-0.479-0.136-0.953-0.25-1.422c1.104,0.094,1.88,0.141,2.328,0.141
		c0.677,0,1.016-0.333,1.016-1V105.894z M294.461,116.909h-1.203v-9.625h1.203V116.909z"/>
	<path fill="#EAEAEA" d="M300.617,117.003l1.094,0.422c-0.375,0.948-0.812,1.906-1.312,2.875c-0.312-0.146-0.677-0.308-1.094-0.484
		C299.731,119.045,300.169,118.107,300.617,117.003z M299.352,109.597h4.391c-0.412-0.391-0.828-0.766-1.25-1.125l0.469-0.438
		h-2.641v-0.938h6.227c-0.214-0.438-0.436-0.849-0.664-1.234l1.062-0.453c0.338,0.589,0.63,1.151,0.875,1.688h5.812v0.938h-2.727
		l0.539,0.406c-0.417,0.386-0.847,0.771-1.289,1.156h4.445v0.938h-15.25V109.597z M305.742,117.003l0.789-0.672h-4.008v0.484h-1.156
		v-5.406h11.125v5.406h-1.156v-0.484h-4.766c0.682,0.578,1.281,1.141,1.797,1.688l-0.922,0.766
		C307.008,118.273,306.439,117.68,305.742,117.003z M311.336,112.315h-8.812v1.109h8.812V112.315z M302.523,115.425h8.812V114.3
		h-8.812V115.425z M303.102,116.925h1.188v1.781c0,0.604,0.344,0.906,1.031,0.906h3.203c0.75,0,1.192-0.286,1.328-0.859
		c0.104-0.396,0.197-0.864,0.281-1.406c0.364,0.156,0.755,0.302,1.172,0.438c-0.125,0.594-0.24,1.073-0.344,1.438
		c-0.25,0.969-0.953,1.453-2.109,1.453h-3.781c-1.312,0-1.969-0.62-1.969-1.859V116.925z M308.789,109.315
		c0.422-0.354,0.885-0.781,1.391-1.281h-6.609c0.463,0.344,0.916,0.708,1.359,1.094l-0.477,0.469h4.617L308.789,109.315z
		 M311.914,117.644l0.891-0.688c0.739,0.792,1.4,1.536,1.984,2.234l-0.984,0.781C313.169,119.139,312.539,118.362,311.914,117.644z"
		/>
</g>
<g>
	<path fill="#EAEAEA" d="M535.414,109.94v-1.125h5.078v1.156c-0.506,1.011-1.104,1.966-1.797,2.867v8.055h-1.219v-6.641
		c-0.573,0.604-1.193,1.177-1.859,1.719c-0.094-0.375-0.24-0.808-0.438-1.297c1.604-1.292,2.932-2.87,3.984-4.734H535.414z
		 M536.961,106.19l1.094-0.547c0.385,0.614,0.791,1.328,1.219,2.141l-1.156,0.594C537.711,107.534,537.325,106.805,536.961,106.19z
		 M538.883,113.706l0.812-0.672c0.635,0.708,1.213,1.38,1.734,2.016l-0.969,0.766C539.961,115.097,539.435,114.394,538.883,113.706z
		 M540.492,119.19h4.391v-7.656h-3.719v-1.219h3.719v-4.578h1.25v4.578h3.969v1.219h-3.969v7.656h4.438v1.219h-10.078V119.19z"/>
	<path fill="#EAEAEA" d="M552.148,106.409h13.672v14.578h-1.188v-0.766h-11.297v0.781h-1.188V106.409z M564.633,107.503h-11.297
		v11.625h11.297V107.503z M554.102,110.269h5.844v-2.25h1.156v2.25h3v1.062h-3v4.766c0,1.511-0.719,2.266-2.156,2.266
		c-0.584,0-1.188-0.011-1.812-0.031c-0.062-0.364-0.146-0.776-0.25-1.234c0.697,0.083,1.291,0.125,1.781,0.125
		c0.854,0,1.281-0.484,1.281-1.453v-3.656c-1.266,1.964-3.136,3.703-5.609,5.219c-0.198-0.344-0.464-0.692-0.797-1.047
		c2.427-1.344,4.312-2.995,5.656-4.953h-5.094V110.269z"/>
</g>
</svg>
