<?xml version="1.0" encoding="utf-8"?>
<!-- Generator: Adobe Illustrator 16.0.0, SVG Export Plug-In . SVG Version: 6.00 Build 0)  -->
<!DOCTYPE svg PUBLIC "-//W3C//DTD SVG 1.1//EN" "http://www.w3.org/Graphics/SVG/1.1/DTD/svg11.dtd">
<svg version="1.1" id="Layer_1" xmlns="http://www.w3.org/2000/svg" xmlns:xlink="http://www.w3.org/1999/xlink" x="0px" y="0px"
	 width="723px" height="205.018px" viewBox="0 0 723 205.018" enable-background="new 0 0 723 205.018" xml:space="preserve">
<g>
	<g>
		<path fill="#EDEDED" stroke="#EDEDED" stroke-width="0.5" d="M81.308,185.937h0.25l19.639-78.054h8.756l-23.641,90.062H76.93
			l-20.89-79.555h-0.25l-20.889,79.555H25.52L2.253,107.883h8.506l19.389,78.054h0.25l20.89-78.054h9.506L81.308,185.937z"/>
		<path fill="#EDEDED" stroke="#EDEDED" stroke-width="0.5" d="M124.337,197.945v-90.062h59.917v7.255h-51.411v32.522h46.407v7.255
			h-46.407v35.775h52.662v7.255H124.337z"/>
		<path fill="#EDEDED" stroke="#EDEDED" stroke-width="0.5" d="M203.265,197.945v-90.062h8.506v82.807h48.283v7.255H203.265z"/>
		<path fill="#EDEDED" stroke="#EDEDED" stroke-width="0.5" d="M339.234,134.026c-1.751-7.671-5.004-13.134-9.757-16.386
			c-4.753-3.252-10.967-4.878-18.638-4.878c-5.421,0-10.091,1.084-14.009,3.252c-3.921,2.169-7.151,5.088-9.694,8.756
			c-2.545,3.67-4.421,7.902-5.629,12.696c-1.21,4.796-1.814,9.862-1.814,15.198c0,5.003,0.52,9.925,1.564,14.76
			c1.042,4.837,2.771,9.153,5.191,12.946c2.417,3.796,5.67,6.86,9.757,9.194c4.085,2.335,9.213,3.502,15.386,3.502
			c3.834,0,7.337-0.625,10.507-1.876c3.168-1.25,5.942-2.98,8.318-5.191c2.376-2.208,4.378-4.816,6.004-7.818
			c1.626-3.002,2.855-6.295,3.69-9.882h8.881c-1,4.337-2.46,8.443-4.378,12.321c-1.919,3.877-4.44,7.276-7.568,10.194
			c-3.127,2.92-6.922,5.234-11.383,6.942c-4.462,1.708-9.694,2.564-15.698,2.564c-6.923,0-12.843-1.272-17.762-3.815
			c-4.921-2.543-8.943-5.982-12.071-10.32c-3.127-4.335-5.4-9.36-6.817-15.073c-1.419-5.711-2.126-11.777-2.126-18.2
			c0-8.588,1.063-15.886,3.19-21.89c2.126-6.004,5.066-10.902,8.818-14.698c3.753-3.794,8.172-6.545,13.259-8.256
			c5.085-1.708,10.632-2.564,16.637-2.564c4.585,0,8.859,0.605,12.821,1.813c3.959,1.21,7.462,3.023,10.507,5.441
			c3.043,2.419,5.544,5.4,7.505,8.943c1.958,3.545,3.315,7.652,4.065,12.321H339.234z"/>
		<path fill="#EDEDED" stroke="#EDEDED" stroke-width="0.5" d="M554.133,197.945v-90.062h13.009l29.521,79.43h0.25l29.021-79.43
			h12.884v90.062h-8.506V117.64h-0.251l-29.52,80.305h-8.006l-29.646-80.305h-0.25v80.305H554.133z"/>
		<path fill="#EDEDED" stroke="#EDEDED" stroke-width="0.5" d="M661.206,197.945v-90.062h59.916v7.255h-51.41v32.522h46.407v7.255
			h-46.407v35.775h52.661v7.255H661.206z"/>
	</g>
	<g>
		<path fill="#FCFC72" d="M447.294,38.615c-31.553,0-57.125,25.584-57.125,57.131c0,14.655,5.524,28.01,14.594,38.126l-0.036-0.006
			c0,0,0.087,0.095,0.217,0.22c0.819,0.901,1.664,1.771,2.545,2.62c3.418,3.607,9.26,10.139,13.202,16.488
			c5.863,9.455,2.932,22.81,16.511,22.81h8.632h2.88h8.639c13.565,0,10.645-13.354,16.507-22.81
			c3.783-6.099,9.323-12.357,12.777-16.042c10.955-10.407,17.787-25.1,17.787-41.406C504.423,64.2,478.853,38.615,447.294,38.615
			 M468.587,121.248c-1.873,2.125-4.866,5.723-6.912,9.241c-3.178,5.436-1.585,13.129-8.935,13.129h-4.678h-1.552h-4.677
			c-7.355,0-5.765-7.693-8.941-13.129c-2.124-3.665-5.294-7.42-7.142-9.497c-0.465-0.495-0.929-0.992-1.376-1.51
			c-0.067-0.073-0.114-0.123-0.114-0.123h0.014c-4.908-5.829-7.892-13.515-7.892-21.958c0-18.161,13.84-32.895,30.911-32.895
			c17.083,0,30.925,14.733,30.925,32.895C478.219,106.797,474.521,115.254,468.587,121.248"/>
		<path fill="#FCFC72" d="M466.489,181.829c0,2.202-2.164,4.471-4.495,4.471H432.11c-2.332,0-3.997-2.269-3.997-4.471v-0.159
			c0-2.213,1.665-4.542,3.997-4.542h29.884c2.331,0,4.495,2.329,4.495,4.542V181.829z"/>
		<path fill="#FCFC72" d="M466.489,192.499c0,2.209-2.164,3.819-4.495,3.819H432.11c-2.332,0-3.997-1.609-3.997-3.819v-0.149
			c0-2.212,1.665-4.382,3.997-4.382h29.884c2.331,0,4.495,2.17,4.495,4.382V192.499z"/>
		<path fill="#FCFC72" d="M456.511,197.161c0,4.336-4.208,7.857-9.388,7.857c-5.191,0-9.389-3.521-9.389-7.857
			c0-4.343,4.197-7.858,9.389-7.858C452.303,189.303,456.511,192.818,456.511,197.161"/>
		<path fill="#FCFC72" d="M457.443,22.992c0,4.398-3.566,7.966-7.967,7.966h-0.454c-4.4,0-7.968-3.568-7.968-7.966V7.968
			c0-4.4,3.567-7.968,7.968-7.968h0.454c4.4,0,7.967,3.568,7.967,7.968V22.992z"/>
		<path fill="#FCFC72" d="M522.402,104.34c-4.399,0-7.968-3.566-7.968-7.968v-0.457c0-4.396,3.568-7.966,7.968-7.966h15.026
			c4.397,0,7.965,3.569,7.965,7.966v0.457c0,4.402-3.567,7.968-7.965,7.968H522.402z"/>
		<path fill="#FCFC72" d="M361.073,104.34c-4.402,0-7.966-3.566-7.966-7.968v-0.457c0-4.396,3.564-7.966,7.966-7.966h15.022
			c4.4,0,7.971,3.569,7.971,7.966v0.457c0,4.402-3.57,7.968-7.971,7.968H361.073z"/>
		<path fill="#FCFC72" d="M506.77,50.211c-3.108,3.113-8.152,3.113-11.263,0l-0.322-0.321c-3.111-3.114-3.111-8.154,0-11.268
			L505.803,28c3.113-3.111,8.159-3.111,11.268,0l0.327,0.323c3.108,3.108,3.108,8.157,0,11.266L506.77,50.211z"/>
		<path fill="#FCFC72" d="M392.692,164.289c-3.108,3.112-8.153,3.112-11.266,0l-0.32-0.321c-3.112-3.112-3.112-8.157,0-11.266
			l10.624-10.624c3.109-3.11,8.15-3.11,11.265,0l0.32,0.323c3.112,3.111,3.112,8.154,0,11.266L392.692,164.289z"/>
		<path fill="#FCFC72" d="M495.185,153.667c-3.111-3.112-3.111-8.155,0-11.266l0.322-0.323c3.11-3.11,8.154-3.11,11.263,0
			l10.628,10.624c3.108,3.109,3.108,8.154,0,11.266l-0.327,0.321c-3.108,3.112-8.154,3.112-11.268,0L495.185,153.667z"/>
		<path fill="#FCFC72" d="M381.107,39.589c-3.113-3.109-3.113-8.158,0-11.266L381.427,28c3.112-3.111,8.157-3.111,11.266,0
			l10.623,10.622c3.112,3.114,3.112,8.154,0,11.268l-0.32,0.321c-3.11,3.113-8.155,3.113-11.265,0L381.107,39.589z"/>
	</g>
</g>
</svg>
