<?xml version="1.0" encoding="utf-8"?>
<!-- Generator: Adobe Illustrator 16.0.0, SVG Export Plug-In . SVG Version: 6.00 Build 0)  -->
<!DOCTYPE svg PUBLIC "-//W3C//DTD SVG 1.1//EN" "http://www.w3.org/Graphics/SVG/1.1/DTD/svg11.dtd">
<svg version="1.1" id="Layer_1" xmlns="http://www.w3.org/2000/svg" xmlns:xlink="http://www.w3.org/1999/xlink" x="0px" y="0px"
	 width="125.333px" height="53.333px" viewBox="0 0 125.333 53.333" enable-background="new 0 0 125.333 53.333"
	 xml:space="preserve">
<g>
	<rect x="-41.353" y="7.141" fill="none" width="159.756" height="50"/>
	<text transform="matrix(1 0 0 1 1.1816 48.3726)" fill="#EDEDED" font-family="'Helvetica-Light'" font-size="48">TIC</text>
	<g>
		<path fill="rgb(127, 199, 239)" d="M99.247,10.759c-7.545,0-13.659,6.118-13.659,13.661c0,3.504,1.321,6.698,3.49,9.116l-0.009-0.001
			c0,0,0.021,0.022,0.052,0.052c0.196,0.215,0.397,0.423,0.608,0.626c0.817,0.862,2.214,2.424,3.157,3.942
			c1.401,2.261,0.7,5.454,3.947,5.454h2.064h0.688h2.065c3.244,0,2.545-3.193,3.947-5.454c0.904-1.458,2.229-2.955,3.056-3.835
			c2.62-2.489,4.253-6.002,4.253-9.901C112.908,16.877,106.793,10.759,99.247,10.759 M104.338,30.518
			c-0.447,0.508-1.163,1.368-1.653,2.209c-0.76,1.3-0.378,3.139-2.136,3.139H99.43h-0.37h-1.119c-1.758,0-1.378-1.839-2.138-3.139
			c-0.508-0.876-1.266-1.774-1.708-2.271c-0.11-0.118-0.222-0.237-0.329-0.361c-0.016-0.017-0.027-0.029-0.027-0.029h0.004
			c-1.174-1.394-1.887-3.231-1.887-5.25c0-4.343,3.31-7.866,7.391-7.866c4.085,0,7.395,3.523,7.395,7.866
			C106.641,27.063,105.757,29.085,104.338,30.518"/>
		<path fill="rgb(127, 199, 239)" d="M103.837,45.003c0,0.527-0.519,1.069-1.076,1.069h-7.145c-0.558,0-0.955-0.542-0.955-1.069v-0.037
			c0-0.529,0.397-1.086,0.955-1.086h7.145c0.558,0,1.076,0.557,1.076,1.086V45.003z"/>
		<path fill="rgb(127, 199, 239)" d="M103.837,47.555c0,0.528-0.519,0.913-1.076,0.913h-7.145c-0.558,0-0.955-0.385-0.955-0.913v-0.036
			c0-0.529,0.397-1.047,0.955-1.047h7.145c0.558,0,1.076,0.518,1.076,1.047V47.555z"/>
		<path fill="rgb(127, 199, 239)" d="M101.451,48.669c0,1.037-1.007,1.879-2.244,1.879c-1.241,0-2.246-0.842-2.246-1.879
			c0-1.038,1.005-1.879,2.246-1.879C100.444,46.791,101.451,47.631,101.451,48.669"/>
		<path fill="rgb(127, 199, 239)" d="M101.674,7.023c0,1.052-0.853,1.905-1.905,1.905h-0.108c-1.052,0-1.905-0.853-1.905-1.905V3.431
			c0-1.052,0.854-1.905,1.905-1.905h0.108c1.053,0,1.905,0.853,1.905,1.905V7.023z"/>
		<path fill="rgb(127, 199, 239)" d="M117.206,26.475c-1.05,0-1.904-0.853-1.904-1.905v-0.11c0-1.051,0.854-1.904,1.904-1.904h3.594
			c1.052,0,1.905,0.854,1.905,1.904v0.11c0,1.052-0.854,1.905-1.905,1.905H117.206z"/>
		<path fill="rgb(127, 199, 239)" d="M78.631,26.475c-1.054,0-1.905-0.853-1.905-1.905v-0.11c0-1.051,0.852-1.904,1.905-1.904h3.592
			c1.052,0,1.904,0.854,1.904,1.904v0.11c0,1.052-0.853,1.905-1.904,1.905H78.631z"/>
		<path fill="rgb(127, 199, 239)" d="M113.469,13.532c-0.744,0.744-1.95,0.744-2.693,0l-0.077-0.077c-0.744-0.745-0.744-1.95,0-2.694
			l2.539-2.541c0.745-0.743,1.95-0.743,2.693,0l0.079,0.078c0.743,0.744,0.743,1.95,0,2.694L113.469,13.532z"/>
		<path fill="rgb(127, 199, 239)" d="M86.191,40.81c-0.743,0.744-1.949,0.744-2.693,0l-0.077-0.077c-0.744-0.744-0.744-1.95,0-2.694l2.541-2.54
			c0.742-0.743,1.949-0.743,2.693,0l0.077,0.078c0.743,0.744,0.743,1.95,0,2.694L86.191,40.81z"/>
		<path fill="rgb(127, 199, 239)" d="M110.699,38.27c-0.744-0.744-0.744-1.95,0-2.694l0.077-0.078c0.743-0.743,1.949-0.743,2.693,0l2.541,2.54
			c0.743,0.744,0.743,1.95,0,2.694l-0.079,0.077c-0.743,0.744-1.948,0.744-2.693,0L110.699,38.27z"/>
		<path fill="rgb(127, 199, 239)" d="M83.421,10.992c-0.745-0.744-0.745-1.95,0-2.694l0.076-0.078c0.744-0.743,1.95-0.743,2.693,0l2.541,2.541
			c0.743,0.744,0.743,1.949,0,2.694l-0.077,0.077c-0.744,0.744-1.951,0.744-2.693,0L83.421,10.992z"/>
	</g>
</g>
</svg>
